<svg width="455" height="432" viewBox="0 0 455 432" fill="none" xmlns="http://www.w3.org/2000/svg">
<rect x="24" y="39" width="340" height="100" rx="20" fill="#5A49F8"/>
<rect x="24" y="154" width="340" height="100" rx="20" fill="#5A49F8"/>
<rect x="24" y="269" width="340" height="100" rx="20" fill="#5A49F8"/>
<rect x="59" y="305" width="95" height="28" rx="14" fill="white"/>
<rect x="59" y="305" width="95" height="28" rx="14" fill="white"/>
<rect x="59" y="190" width="95" height="28" rx="14" fill="white"/>
<rect x="59" y="75" width="95" height="28" rx="14" fill="white"/>
<path d="M344.548 184C351.933 184 358.246 189.155 359.809 196.312L359.88 196.653L359.881 196.659L362.906 212.234C370.238 215.264 377.122 219.192 383.359 223.982L398.248 218.846L398.257 218.843C405.342 216.412 413.145 219.352 416.88 225.841L432.906 253.672L432.907 253.674C436.635 260.152 435.284 268.386 429.641 273.309L429.639 273.311L417.686 283.724C418.209 287.535 418.542 291.457 418.542 295.5C418.542 299.542 418.209 303.464 417.686 307.275L429.639 317.689L429.641 317.691C435.281 322.612 436.636 330.825 432.907 337.306V337.307L416.881 365.157L416.876 365.165C413.13 371.649 405.337 374.581 398.248 372.134V372.135L383.36 366.998C377.125 371.791 370.245 375.731 362.906 378.765L359.881 394.341L359.88 394.347C358.446 401.68 352.05 407 344.548 407H312.45C304.948 407 298.552 401.68 297.118 394.347L297.117 394.341L294.091 378.765C286.759 375.735 279.875 371.807 273.638 367.017L258.75 372.154L258.741 372.157C251.656 374.588 243.854 371.648 240.119 365.159L224.092 337.328L224.09 337.324C220.369 330.849 221.712 322.615 227.362 317.69V317.689L239.312 307.275C238.789 303.464 238.457 299.542 238.457 295.5C238.457 291.457 238.789 287.535 239.312 283.724L227.362 273.311V273.31C221.712 268.385 220.369 260.151 224.09 253.676L224.092 253.672L240.119 225.841L240.125 225.831C243.867 219.368 251.654 216.417 258.749 218.865L273.638 224.002C279.873 219.209 286.753 215.269 294.091 212.235L297.117 196.659L297.118 196.653C298.552 189.32 304.948 184 312.45 184H344.548ZM328.501 257.9C307.787 257.9 290.979 274.726 290.979 295.5C290.979 316.274 307.787 333.1 328.501 333.1C349.211 333.1 366.02 316.274 366.02 295.5C366.02 274.726 349.211 257.9 328.501 257.9Z" fill="#5A49F8" stroke="white" stroke-width="10"/>
<ellipse cx="328" cy="294.5" rx="36" ry="35.5" fill="white"/>
</svg>
